# xmcd CD database file
# Copyright (C) 1997 Ti Kan
#
# Track frame offsets:
#  150
#  14382
#  29162
#  41335
#  54817
#  67890
#  81212
#  93890
#  107962
#  121307
#  134362
#  147097
#  160030
#  172892
#  187215
#  202050
#  216730
#  231695
#  246240
#  260447
#  275515
#  289700
#  303270
#
# Disc length: 4224 seconds
#
# Revision: 1
# Processed by: cddbd v1.4b41PL1 Copyright (c) Steve Scherf et al.
# Submitted via: CDWizzard Release:4.31
#
DISCID=58107e17
DTITLE=Curley Weaver - Complete Recorded Works 1933 - 1935
DYEAR=1900
DGENRE=
TTITLE0=No No Blues
TTITLE1=Leg Iron Blues
TTITLE2=Some Cold Rainy Day (With Ruth Willis, vocal)
TTITLE3=Tippin' Tom
TTITLE4=Birmingham Gambler
TTITLE5=Tampa Strut (The Georgia Browns)
TTITLE6=Decatur Street 81 (The Georgia Browns)
TTITLE7=Next Door Man (take 1) (The Georgia Browns)
TTITLE8=Next Door Man (take 2) (The Georgia Browns)
TTITLE9=It Must Have Been Her (The Georgia Browns)
TTITLE10=Who Stole De Lock? (The Georgia Browns)
TTITLE11=Joker Man (The Georgia Browns)
TTITLE12=You Was Born To Die (Duet with Willie McTell)
TTITLE13=Dirty Mistreater
TTITLE14=Black Woman
TTITLE15=City Cell Blues
TTITLE16=Empty Room Blues
TTITLE17=Tricks Ain't Walking No More
TTITLE18=Sometime Mama
TTITLE19=Oh Lawdy Mama
TTITLE20=Two Faced Woman
TTITLE21=Early Morning Blues
TTITLE22=Fried Pie Blues
EXTD=
EXTT0=
EXTT1=
EXTT2=
EXTT3=
EXTT4=
EXTT5=
EXTT6=
EXTT7=
EXTT8=
EXTT9=
EXTT10=
EXTT11=
EXTT12=
EXTT13=
EXTT14=
EXTT15=
EXTT16=
EXTT17=
EXTT18=
EXTT19=
EXTT20=
EXTT21=
EXTT22=
PLAYORDER=
